<svg  xmlns:xlink="http://www.w3.org/1999/xlink">
		<defs>
			<symbol id="sbalogo" viewBox="0 0 1114.18 279.53">
				<path class="cls-1" fill="#ffffff" d="M699.61 126l.16-1.64c-1.7.22-2.66.33-2.84.33a15.74 15.74 0 0 1-1.67-.14c-.8-.09-1.54-.13-2.18-.19l-1-.16-3.15-.17a14.92 14.92 0 0 0-11.08 4.37c-2.86 2.89-5.1 7.67-6.76 14.37a30.39 30.39 0 0 0-.71 4.36l-1.55-.14c.3-7.16.88-14.77 1.68-22.8-2.36 1.07-6.2 1.73-11.41 2h-8a22.55 22.55 0 0 0-4.1.61 4.82 4.82 0 0 0-2.45 1.64 14.88 14.88 0 0 0-2 3.52c-.64 1.49-1.64 4-3 7.67a7.27 7.27 0 0 0-.21.72c-.07.2-.13.41-.23.68h1.17c3.14.25 5.23 1.12 6.19 2.59s1.47 4.55 1.47 9.24V190a55.73 55.73 0 0 1-1.06 11.77 34.54 34.54 0 0 1-3.76 9.56c-.2.48-.37.85-.51 1.13s-.35.54-.52.84H645l2.63.17h12.46l8.71-.16c3.35-.11 5.92-1 7.66-2.64s3.41-5 4.89-10a21.57 21.57 0 0 0 .61-2.55 7.25 7.25 0 0 1-1.61.12c-3.24 0-5.51-.9-6.8-2.73s-1.89-5.14-1.89-10v-15.12c0-8.85 1.14-15.13 3.38-18.88s5.79-5.66 10.63-5.74l2.84-.15h.15a9.42 9.42 0 0 0 6.4-4.5c1.73-2.56 3.06-6.51 4-11.82zm-61.3 48.78a32.52 32.52 0 0 0-7.76-14.78q-5.53-5.91-15.45-9.32a46.41 46.41 0 0 0-6.7-2c-.63-.17-1.55-.37-2.72-.57h1c.28.05.52.07.81.11a37.14 37.14 0 0 0 4 .14c6.12 0 11-1.6 14.47-4.86s5.31-7.74 5.31-13.49a30.59 30.59 0 0 0-.79-6.4 21.23 21.23 0 0 0-5.73-11.3q-4.47-4.53-12.93-6.83c-5.6-1.53-12.63-2.3-21-2.3h-3.15q-16 .27-21.6 3.14a13 13 0 0 0-7.06 9.5l-.73 3.4a4.85 4.85 0 0 1 1.25-.29 5.27 5.27 0 0 1 3.67 1.22 7.84 7.84 0 0 1 1.8 4.38 67.85 67.85 0 0 1 .48 9.38v55.5a79.15 79.15 0 0 1-1 14.26 29.93 29.93 0 0 1-3.67 9.64c2.06 0 4.82.07 8.22.14s5.48.13 6 .2l10.76.86c3.75.33 7.53.51 11.37.51 8.93 0 16.36-1.06 22.23-3.24a28.72 28.72 0 0 0 13.61-9.57 31.94 31.94 0 0 0 5.9-15.68c.18-1.73.26-3.14.26-4.17 0-.81-.15-1.92-.31-3.34s-.38-2.81-.54-4.23zm-46.46-36.2v-16.7a8.2 8.2 0 0 1 1.66-4.89 5.25 5.25 0 0 1 4.33-2.19 9 9 0 0 1 4.31 1.67 12.28 12.28 0 0 1 4.26 5.14 16.2 16.2 0 0 1 1.56 7 14.17 14.17 0 0 1-2.29 8.16 8.24 8.24 0 0 1-3.92 2.92 14.11 14.11 0 0 1-5.61 1.17q-4.32.02-4.3-2.27zm16.92 58.13c-1.54 2.78-4.34 5-8.42 6.58a4.11 4.11 0 0 1-1.52.3c-1.82 0-3.37-1.2-4.63-3.59a15.44 15.44 0 0 1-2-7.48v-41.23a45.82 45.82 0 0 1 5.51 3.58 37.32 37.32 0 0 1 7.7 7.94 25.07 25.07 0 0 1 4.74 12q.85 8 .85 11.45a21.83 21.83 0 0 1-2.23 10.46zm502.72-19.09a30.28 30.28 0 0 0-8.51-10.56l-7.75-6.56-1.93-1.68-5.26-4.31a27.15 27.15 0 0 1-2.64-2.41q-5.39-4.71-6.26-7.42a9 9 0 0 1-.51-2.41 4.45 4.45 0 0 1 .51-2.11 4 4 0 0 1 3.72-2 13.94 13.94 0 0 1 1.89.3 9.52 9.52 0 0 1 2 .73l3.43 1.55 1.13.43c.34.09.63.19.92.29s.7.24 1.23.44a24.72 24.72 0 0 0 5.39.75q10.86 0 13-15.58a24.16 24.16 0 0 0 .25-3.43 10.86 10.86 0 0 0-1.71.71 31.71 31.71 0 0 1-11 2.12 59.35 59.35 0 0 1-10.84-1.29 45.29 45.29 0 0 0-9.38-1.12 19 19 0 0 0-4.54.44q-13.83 2.9-17.28 16.94a18.63 18.63 0 0 0-.8 5.56 26.37 26.37 0 0 0 2.85 11.56 25 25 0 0 0 3.78 6 81.43 81.43 0 0 0 7.29 7.31c1.34 1.16 2.4 2.05 3.13 2.62l3.71 3.5 1.47 1.16 4.78 3.71.77.6q2.12 1.81 4.19 3.94a8.25 8.25 0 0 1 2.32 5.75c0 2.86-1.41 5.22-4.27 7.05a12.59 12.59 0 0 1-5.56 1.32 13.76 13.76 0 0 1-3.12-.28 11.78 11.78 0 0 1-7.11-4.45 13.4 13.4 0 0 1-2.75-8.27 17.29 17.29 0 0 1 .3-2.7c.09-.39.34-1.14.73-2.24-.57.28-1.09.55-1.53.81a10.35 10.35 0 0 1-1.14.55q-7.47 4.46-9.9 6.83a19.5 19.5 0 0 0-4.28 7l-.42 1.53-.3.71a12 12 0 0 0 3 2.72 48.1 48.1 0 0 0 14.7 8.56 45.5 45.5 0 0 0 15.25 2.77 35.18 35.18 0 0 0 14.86-3.06 24.57 24.57 0 0 0 10.36-8.38 24 24 0 0 0 4.52-14 30.63 30.63 0 0 0-2.69-11.99zM764.77 141A31.6 31.6 0 0 0 752 129a38.8 38.8 0 0 0-17.9-4 40.56 40.56 0 0 0-13.78 2.25 31.57 31.57 0 0 0-11.18 6.87 36.35 36.35 0 0 0-8 11.34 62.4 62.4 0 0 0-4.68 15.65 58.23 58.23 0 0 0-.73 8.68 67.1 67.1 0 0 0 .72 8.84c1.29 7.83 3.58 14.45 7 19.85a32.69 32.69 0 0 0 12.83 12.12 38 38 0 0 0 17.84 4q15.52-.12 25.16-9.17t12.65-26.94a61.33 61.33 0 0 0 .72-8.68 55.73 55.73 0 0 0-.71-8.54c-1.43-8.11-3.82-14.86-7.17-20.27zm-20.13 43.11a34.45 34.45 0 0 1-3.19 11.42c-1.55 3.12-3.75 4.71-6.65 4.75-4.38 0-7.55-3-9.42-9a74.56 74.56 0 0 1-2.94-21.3 82.46 82.46 0 0 1 2.49-21.53c1.72-6 4.72-9.06 9.05-9.06a7.89 7.89 0 0 1 7.3 4.52 31.12 31.12 0 0 1 3.29 10.9 143.39 143.39 0 0 1 .92 14.59 117.29 117.29 0 0 1-.85 14.72zm168.71 14.27a7.4 7.4 0 0 1-4.45-1.69 5.84 5.84 0 0 1-1.53-4.15l-.16-2.17V153.61c0-5.6-.51-10.06-1.61-13.36a21.54 21.54 0 0 0-5.38-8.76 22.64 22.64 0 0 0-7.75-5.46 24.25 24.25 0 0 0-9.59-1.9 23.42 23.42 0 0 0-5.52.57q-9.71 2.17-12.84 7.89l-.75-.14.31-1.16.16-1.84c.19-2.23.28-3.5.28-3.85v-11.64c0-1.91 0-3.29.13-4.16q1.09-9.69 3.93-15.24h-17.32a51.46 51.46 0 0 0-10.38 1 8.82 8.82 0 0 0-5.09 2.94 20.74 20.74 0 0 0-3.1 7.1l-1 3.94-.17.29h.87q4.25 0 5.71 1.53c.95 1 1.52 3.23 1.73 6.64a5 5 0 0 1 .15 1.52v70.32a99 99 0 0 1-.47 11.4 35.14 35.14 0 0 1-1.9 7.64 41.77 41.77 0 0 1-2.12 4.59h2.87l2.55.15h9l5.76-.15h4.51c3.36 0 5.75-.77 7.23-2.29s3.08-5.1 4.87-10.69c.31-1.18.47-1.76.47-1.83H872c-2.54-.19-4.25-.68-5.17-1.47s-1.43-2.19-1.52-4.19l-.23-4.89v-29.5l-.14-6.69q.74-7.58 3.62-10.87a6.83 6.83 0 0 1 5.59-2.69 6.26 6.26 0 0 1 5.22 2.39c1.79 2 2.7 6.42 2.7 13.3v37.92a74.58 74.58 0 0 1-.54 10.08 36.81 36.81 0 0 1-2 7.57l-.72 2.06-.72 1.83h6.56l6.72.16h5.54a62 62 0 0 0 10.05-.73 6.35 6.35 0 0 0 4.07-2.76 67.79 67.79 0 0 0 4.14-9.47 10.09 10.09 0 0 0 .75-2.14h-.58zm141-72.21l.14-1.64c-1.69.22-2.65.32-2.82.32a15 15 0 0 1-1.69-.13l-2.18-.19-1-.17-3.12-.15a14.76 14.76 0 0 0-11.09 4.36c-2.87 2.89-5.13 7.66-6.77 14.37-.39 1.78-.64 3.25-.77 4.36l-1.5-.14q.43-10.75 1.7-22.8-3.6 1.62-11.44 2h-7.91a22.23 22.23 0 0 0-4.13.62 4.93 4.93 0 0 0-2.45 1.63 15.17 15.17 0 0 0-2 3.53c-.62 1.49-1.63 4-3 7.66a3.9 3.9 0 0 0-.24.74c-.07.2-.13.41-.23.67h1.17q4.74.38 6.19 2.58c1 1.5 1.49 4.56 1.49 9.23v37.24a56.37 56.37 0 0 1-1.06 11.76 35.16 35.16 0 0 1-3.81 9.55 11 11 0 0 1-.49 1.14c-.16.27-.34.54-.52.85h2.85l2.65.16h12.42l8.74-.17c3.34-.1 5.89-1 7.66-2.63s3.37-5 4.88-10a19 19 0 0 0 .6-2.56 7.08 7.08 0 0 1-1.6.12c-3.27 0-5.53-.91-6.8-2.73s-1.88-5.14-1.87-9.95v-15.24c0-8.86 1.12-15.13 3.38-18.88s5.8-5.66 10.64-5.75l2.82-.15h.14a9.52 9.52 0 0 0 6.41-4.5c1.75-2.56 3.06-6.5 4-11.82zm-64 76.48a18.38 18.38 0 0 0-1.5-2.11c-2.14-2.56-4.48-3.88-7-3.88a9.26 9.26 0 0 0-3.42.59l-1.13.3-2.46.7-1.52.43-2.41.6a21.06 21.06 0 0 1-5.6.8q-12.93 0-19.64-15.23a7.31 7.31 0 0 1-.7-1.83l28.38-14.11a32.8 32.8 0 0 0 8.27-5.37c1.65-1.71 3.14-3.27 4.77-8 1.92-5.58.63-12.17-1.52-16.76a20.4 20.4 0 0 0-7.32-8.38l-.63-.45a33.91 33.91 0 0 0-20.28-6.42 41.49 41.49 0 0 0-12 1.67c-8.27 2.3-15.12 7.5-20.56 15.68s-8.14 17.82-8.14 28.93a61 61 0 0 0 2.76 18.94 39.67 39.67 0 0 0 8.1 14.44 33.88 33.88 0 0 0 12.5 8.92 41 41 0 0 0 16 3 63.63 63.63 0 0 0 18.26-2.84 56.57 56.57 0 0 0 17.37-8.42l-.29-.45zm-49-37.78c-.18-1.95-.29-3.42-.29-4.45a34.3 34.3 0 0 1 2.19-12.42 20 20 0 0 1 5.39-8.48 10.14 10.14 0 0 1 6.42-2.41 9.68 9.68 0 0 1 8.81 5.72 11.56 11.56 0 0 1 1.23 4.95 13.08 13.08 0 0 1-3.53 8.47q-3.55 4.16-10.83 7.66l-9 4.14a11.8 11.8 0 0 1-.41-3.17zm-111.44 36c-.16-.19-.32-.42-.51-.68s-.44-.62-.74-1q-2.16-2.6-4.13-2.59a3.45 3.45 0 0 0-1.75.44l-1.22.44-.56.52-1 .58-1 .28a5 5 0 0 1-1.18.44 6.11 6.11 0 0 1-5-2.18c-1.19-1.45-1.88-3.81-2-7.08l-.16-2.92v-39.04-8a8.26 8.26 0 0 0 4.84 1.4 19.32 19.32 0 0 0 5.37-.72c2.69-.62 4.79-3.32 6.4-8.1.19-.57.34-1 .42-1.27a9.8 9.8 0 0 0 .44-1.41l1.25-4.59v-.32l.44-.94.43-1.16a11.85 11.85 0 0 1-4.82 3 22.84 22.84 0 0 1-6.65.82c-.28-.07-.57-.09-.8-.13a5 5 0 0 0-.94-.06 20.69 20.69 0 0 0-6.4.83v-17.49c0-2.82.22-6.12.59-9.84-1.09.78-3 1.91-5.71 3.42a32.54 32.54 0 0 1-6 2.18l-5.28 1.39-.28.14a8.8 8.8 0 0 0-4.1 2.8 9.73 9.73 0 0 0-1.46 4.97c-.19 2.59-.31 4.48-.35 5.69-.11 1.73-.27 3.83-.43 6.07a12.78 12.78 0 0 0-2.85-.3c-4.25.15-7.16 2.55-8.77 7.17l-.79 2.26-.44 1.54-1 3.72-.18.75-.27.89-.67 1.37a28.32 28.32 0 0 1 3-1.67 21.29 21.29 0 0 1 4.82-1.17h4.31l.5-.14a6.25 6.25 0 0 0 1.48-.75c0 .84-.3 6.3-.3 8.62v39.6q0 12.81 4.77 19.24c3.18 4.26 8 6.43 14.34 6.43 1.16 0 3.26-.21 6.28-.58a26.38 26.38 0 0 0 7.28-2.32 91.5 91.5 0 0 0 10.21-6.2q.74-.57 1.2-.9t1-.69l-.59-1.08zM209.26 115.44h-3.09l1.05-2.33.76-1.84c.75-1.75 1.61-4 2.5-6.8l1.22-3.56.54-1.27c1.71-4.8 5.54-7.25 11.47-7.4h7.95l3.42-.17 3.41-.13 3-.16-1 2.63-.94 2.59-1.06 3.11-1 2.78-.9 3.39-.45 1.13a10.9 10.9 0 0 1-5.45 6.18c-2.51 1.25-6.13 1.85-10.87 1.85-1.68-.11-4.38-.15-8.12-.15zM236 196.1c-1-1.08-1.58-3.12-1.72-6.13l-.29-9.64v-30.75c0-2.08 0-3.73.16-5a64.25 64.25 0 0 1 1.37-10.44 40.77 40.77 0 0 1 3-8.25h-25c-5.21 0-8.42 2.19-9.58 6.56-1.27 3.75-2.07 5.95-2.41 6.58l-.3.71-.59 1.09h1.46c2.58.24 4.45 1 5.57 2.24s1.74 3.23 1.78 5.94v38.19a45.58 45.58 0 0 1-.19 4.75 87.31 87.31 0 0 1-1.14 13 29.52 29.52 0 0 1-2.9 8h11.24l4 .14h3.14c5.95 0 10-.41 12.09-1.23a7.39 7.39 0 0 0 4.33-5.19 57.72 57.72 0 0 1 2.29-6.88l.3-.43.42-1.25h-1.45q-4.12-.38-5.58-2.01zm-41.49 1a5.23 5.23 0 0 1-2-3.08 35 35 0 0 1-.92-6.71v-36.93a32.42 32.42 0 0 0-1.76-11.09 24.39 24.39 0 0 0-5-8.39 21.35 21.35 0 0 0-7.77-5.38 25.55 25.55 0 0 0-9.91-1.91 29.3 29.3 0 0 0-4.81.29 26.25 26.25 0 0 0-10 3.4 19.13 19.13 0 0 0-6.6 6.75q-4-8.52-15.69-10.15a33.52 33.52 0 0 0-3.57-.15c-.49 0-1.1 0-1.8.11s-1.31.16-1.81.24a19.05 19.05 0 0 1-2.1.31c-7 1.47-11.92 5.17-14.81 11.09l-1.18-.44a50.14 50.14 0 0 1 2.86-10.83 25.89 25.89 0 0 1-10 1.7H93a29.51 29.51 0 0 0-7.55.7 7.25 7.25 0 0 0-4.07 3 29.27 29.27 0 0 0-3.08 6.58l-1.75 4.81h1.17c4.72.17 7.06 2.26 7.06 6.31v44.94a69.49 69.49 0 0 1-.86 11.73 33.41 33.41 0 0 1-3 9.06l3.92.15h19.44a17.08 17.08 0 0 0 6.12-.86 7.48 7.48 0 0 0 3.49-3.49 49.89 49.89 0 0 0 3.09-8 20.25 20.25 0 0 0 .6-2.85h-1c-2.5-.29-4.21-.87-5.15-1.77a5.78 5.78 0 0 1-1.43-4.06l-.3-3.28v-36.64l.16-3.72c0-4.09 1.14-7 3.44-8.69a7.64 7.64 0 0 1 4.31-1.3 7.92 7.92 0 0 1 3.89.95 5.87 5.87 0 0 1 2.52 2.63 26.8 26.8 0 0 1 1.51 8.11V191q0 13.43-4.24 22.1l3.57.17h1l6.85-.17H136l8.55.18a25.67 25.67 0 0 0 7-1.2 6.86 6.86 0 0 0 3.43-3.26 61.42 61.42 0 0 0 3.47-9q.08-.23.45-1.68h-.45l-2-.3a7.39 7.39 0 0 1-4.32-1.57 6.21 6.21 0 0 1-1.43-4l-.15-3.58v-40.94c.15-3.56 1.27-6.2 3.4-8a7.69 7.69 0 0 1 4.53-1.59 6.15 6.15 0 0 1 5.91 3.72q1.32 2.48 1.66 8.26v38.52a87.53 87.53 0 0 1-.95 14.81 29.23 29.23 0 0 1-3.38 9.56l5.54.14h10.14a103.7 103.7 0 0 0 12.45-.47 7.34 7.34 0 0 0 4.75-2.19c1-1.12 2.26-3.53 3.77-7.18l2.27-5.38h-1.84a10.13 10.13 0 0 1-4.31-.81zm191.3 1.16l-2-.12a8 8 0 0 1-4.49-1.69 6.2 6.2 0 0 1-1.53-4.17l-.12-2.18v-36.8q0-8.38-1.61-13.33a21.87 21.87 0 0 0-5.39-8.76 22.54 22.54 0 0 0-7.77-5.48 25.9 25.9 0 0 0-15.12-1.32q-9.69 2.16-12.84 7.87l-.73-.13.32-1.15.13-1.84c.21-2.24.29-3.5.29-3.83v-11.59a36.63 36.63 0 0 1 .17-4.16q1.06-9.69 3.91-15.22H321.7a53.83 53.83 0 0 0-10.34 1 9 9 0 0 0-5.09 3c-1.15 1.42-2.16 3.8-3.1 7.1l-1 4-.14.28h.88c2.83 0 4.72.52 5.69 1.51s1.56 3.25 1.73 6.67a5 5 0 0 1 .17 1.52l-.05 70.31A109.51 109.51 0 0 1 310 201a36.63 36.63 0 0 1-1.92 7.62 41.94 41.94 0 0 1-2.08 4.58h2.87l2.54.14h9l5.78-.16h4.51c3.35 0 5.76-.75 7.22-2.26s3.08-5.11 4.9-10.7c.28-1.18.42-1.77.42-1.83h-.7c-2.54-.18-4.25-.67-5.17-1.45s-1.43-2.19-1.52-4.23l-.21-4.89v-29.5l-.17-6.69q.75-7.6 3.64-10.87a6.84 6.84 0 0 1 5.61-2.69 6.3 6.3 0 0 1 5.22 2.4c1.79 2 2.67 6.41 2.66 13.29v37.94a70.18 70.18 0 0 1-.52 10.06 39.09 39.09 0 0 1-2 7.59l-.72 2-.73 1.81h6.57l6.71.17h5.56a64.08 64.08 0 0 0 10-.71 6.26 6.26 0 0 0 4.06-2.77 66.77 66.77 0 0 0 4.17-9.49 10.2 10.2 0 0 0 .72-2.12zM63.45 157.09Q61 155 53.86 149.62l-4.22-3.29-6.26-5.11q-1.31-1.09-3.3-2.67l-5.73-5.13a28.41 28.41 0 0 1-3.22-3.32 8.65 8.65 0 0 1-1.72-2.64 13.21 13.21 0 0 1-.47-2.77 8.94 8.94 0 0 1 3.46-7.3q3.45-2.77 9.67-2.78a18 18 0 0 1 6.83 1.55 13.9 13.9 0 0 1 5.42 3.64 7 7 0 0 1 1.74 4.51 7.79 7.79 0 0 1-1.89 5 12.56 12.56 0 0 1-2.12 2.24 15.71 15.71 0 0 0 2.69-.29 48 48 0 0 0 9.13-2.83 12.94 12.94 0 0 0 5.13-4.16 41.63 41.63 0 0 0 4.18-8.11c.14-.48.33-1 .56-1.65a17.6 17.6 0 0 0 .61-1.91l-1.63-.95-1.52-.86c-1.22-.74-2.7-1.53-4.45-2.41a64.45 64.45 0 0 0-20.49-5.83c-2.54-.21-4.48-.33-5.83-.33a48.06 48.06 0 0 0-18.86 3.42 28.24 28.24 0 0 0-17.45 25.87 26.36 26.36 0 0 0 4.74 15.26 46.55 46.55 0 0 0 3.73 4.43c1.17 1.27 3 3 5.37 5.26 1.75 1.64 3.09 2.89 4 3.71l4.5 3.72 3.28 2.7 5.4 4.54 3.31 2.62a82 82 0 0 1 9.38 8.31 12.1 12.1 0 0 1 3 5.76A13.77 13.77 0 0 1 47 198c-2.55 2.57-6 3.87-10.35 3.87a27.8 27.8 0 0 1-3.56-.3c-2-.49-3.23-.86-3.73-1a14.9 14.9 0 0 1-6.84-5 11.46 11.46 0 0 1-2.42-7.09 10.42 10.42 0 0 1 1.62-5.55 11.34 11.34 0 0 1 3.43-3.13 15.6 15.6 0 0 0-2.49.59A74.42 74.42 0 0 0 11.81 184a12.8 12.8 0 0 0-5.12 4A80.17 80.17 0 0 0 .8 198.21 8.46 8.46 0 0 1 0 200a53.53 53.53 0 0 0 15.73 10.4 59.84 59.84 0 0 0 19.12 4.6c1.18.13 2.94.18 5.33.18q29.78 0 35.47-25.07a35.08 35.08 0 0 0 .89-7.38q0-10.44-9-21.23a28.92 28.92 0 0 0-4.09-4.41zm236.92 43.62c-.16-.2-.33-.42-.52-.69s-.43-.62-.73-1c-1.46-1.73-2.83-2.61-4.15-2.63a4.32 4.32 0 0 0-1.73.45l-1.23.45-.59.41-1 .6-.92.28a7.13 7.13 0 0 1-1.19.45 6.07 6.07 0 0 1-5-2.21c-1.19-1.43-1.88-3.79-2.05-7.05l-.15-2.93v-39-8a8.09 8.09 0 0 0 4.85 1.42 19.52 19.52 0 0 0 5.39-.72c2.64-.61 4.78-3.34 6.41-8.1a13.18 13.18 0 0 1 .43-1.28c.08-.25.24-.72.41-1.41l1.26-4.58v-.3l.44-1 .43-1.16a12 12 0 0 1-4.83 3 22.32 22.32 0 0 1-6.66.84c-.29-.08-.55-.1-.81-.15s-.53-.06-.92-.06a20.58 20.58 0 0 0-6.44.83c0-.75.07-17.49.07-17.49a93 93 0 0 1 .58-9.84 64.37 64.37 0 0 1-5.72 3.44 30.77 30.77 0 0 1-6 2.16l-5.27 1.4-.3.13a9.15 9.15 0 0 0-4.09 2.81 9.63 9.63 0 0 0-1.39 4.92c-.21 2.74-.34 4.68-.37 5.88-.13 1.68-.28 3.71-.43 5.91a12.73 12.73 0 0 0-2.86-.31c-4.25.14-7.15 2.53-8.75 7.17l-.82 2.26-.44 1.53-1 3.75-.15.73-.27.88-.68 1.39a26.27 26.27 0 0 1 3-1.69 23.19 23.19 0 0 1 4.81-1.15h4.3l.51-.14a6.94 6.94 0 0 0 1.49-.75c-.06.85-.22 3.19-.25 3.73-.06.91-.07 2.56-.07 4.88v39.6q0 12.81 4.76 19.23t14.27 6.48a57.71 57.71 0 0 0 6.28-.59 24.65 24.65 0 0 0 7.29-2.31 82.09 82.09 0 0 0 10.22-6.2c.48-.39.9-.66 1.2-.89a10.29 10.29 0 0 0 1-.7l-.57-1.07z"/><path class="cls-2" fill="#fecf07"  d="M498.89 237.49a22 22 0 0 1-2.25 1.52c.13.06.24.13.37.2a17.55 17.55 0 0 0 1.88-1.72zM498.81 240.44l.11.08-.1-.09zM438 246.67a30 30 0 0 0 9.25 2.91 65.82 65.82 0 0 0 19.08.07 77.79 77.79 0 0 0 11-2.26c7.18-2 13.27-4.93 17.27-8.18-.12-.07-.24-.14-.37-.2-6.35 3.75-16.55 6.18-28 6.18a68.42 68.42 0 0 1-20.92-3.07 30.47 30.47 0 0 1-10-5.16 10.08 10.08 0 0 0-2.25 4.39c.57 2.1 2.33 3.89 4.94 5.32zm57 7.68a.46.46 0 0 0-.07-.07c-5.43 4.62-15 8.57-26.1 10.36h-.07l-1 .15h-.18l-1 .15-1.11.14-.47.05-.64.07-1 .1h-.28a64.75 64.75 0 0 1-13-.1h-.14l-.95-.13-.37-.05-.62-.02-.59-.1h-.25l-.91-.17h-.08c-4.93-1-8.78-2.69-11-4.95v.12a5.85 5.85 0 0 0 0 .59v.44a5.55 5.55 0 0 0 .21 1.15 1.09 1.09 0 0 1 .08.15c2.37 4.34 10.07 7.33 20 8.54a88 88 0 0 0 11.13.6 69.77 69.77 0 0 0 10.8-.91c10.77-1.79 18.84-6 20.36-11.09a8.1 8.1 0 0 0-2.75-5.02zm-28.47 7.57c10.75-1.42 20.39-4.89 26.51-9.13 3.45-2.38 5.78-5 6.58-7.65a7.63 7.63 0 0 0-3-4.64l-.1-.08c-2.9 3-7.6 5.88-13.43 8.12a73.6 73.6 0 0 1-15.39 4l-1.23.17-1.19.16H464.71l-.64.07-.51.05h-.37c-8 .75-15.24.14-20.61-1.5a20.41 20.41 0 0 1-6.45-3.12l-.05.05a10.72 10.72 0 0 0-2.92 5.19 7.83 7.83 0 0 0 2.7 3.76c5.28 4.39 17.05 6.35 30.62 4.55zm13 10.57a.3.3 0 0 0 0-.08h-.25a69.84 69.84 0 0 1-12.62 1.24h-.83q-1.71 0-3.36-.09h-1.23l-.95-.06-.64-.06-1-.1-.54-.05-1.17-.15h-.25c-1-.15-2-.3-2.93-.48h-.05l-.07.13a2.63 2.63 0 0 0-.25 1 1.34 1.34 0 0 0 0 .2c0 3.15 5.95 5.67 13.27 5.62 7.16-.06 13-2.56 13.2-5.63a1.34 1.34 0 0 0 0-.2 1.55 1.55 0 0 0 0-.21 2.83 2.83 0 0 0-.38-1.08z"/><path class="cls-2" fill="#fecf07" d="M517.51 58.68c-8.5-9.47-17.32-11-20.78-11h-2.56l-4.87-.06h-8.02c-3.27 0-6.9.13-9.51.31l1.5-2a46.77 46.77 0 0 1 4.61-5.59 117.19 117.19 0 0 1 10-8c.69-.27 1.06-1.33 1.16-2a6 6 0 0 0-.91-2.45 6.26 6.26 0 0 0-.82-1.22 7.45 7.45 0 0 0-3.79-1.75c-1.25-.12-3.81 2.14-5 3-3.46 2.5-9.61 10.31-11.77 14.92v-.93c0-.3 0-.61-.06-.91 0-.29-.05-.59-.09-.88 0-.29-.06-.57-.1-.85 0-.28-.07-.55-.12-.83v-.05c0-.27-.09-.54-.14-.8v-.06l-.15-.77a.2.2 0 0 1 0-.07c-.05-.26-.11-.51-.17-.75a.22.22 0 0 0 0-.08c-.06-.24-.13-.48-.19-.73a.17.17 0 0 0 0-.07c-.07-.24-.13-.48-.19-.71a.13.13 0 0 1 0-.08c-.06-.23-.14-.46-.21-.69v-.08c-.08-.23-.16-.45-.23-.67a.19.19 0 0 0 0-.08c-.08-.23-.15-.44-.24-.66v-.08c-.08-.22-.16-.43-.25-.64a.24.24 0 0 1 0-.08c-.1-.21-.18-.42-.27-.62l-.05-.09q-.12-.3-.27-.6a.32.32 0 0 1 0-.09l-.29-.58v-.09c-.11-.2-.2-.39-.31-.58a.56.56 0 0 1-.05-.08c-.09-.19-.2-.37-.3-.56l-.06-.09-.31-.54s-.05-.05-.06-.08l-.33-.53a.47.47 0 0 1-.06-.09l-.34-.51-.06-.09c-.12-.17-.23-.34-.36-.5a.47.47 0 0 0-.06-.09c-.12-.16-.23-.32-.36-.48l-.07-.09c-.11-.16-.24-.31-.36-.47l-.07-.09-.38-.46a.5.5 0 0 1-.07-.08l-.38-.45-.08-.09c-.14-.14-.27-.29-.4-.43l-.07-.09-.4-.42a.76.76 0 0 1-.09-.09c-.14-.13-.27-.27-.4-.41a.7.7 0 0 1-.1-.08 5.18 5.18 0 0 0-.41-.4l-.08-.08-.42-.39-.1-.09-.43-.37a.38.38 0 0 0-.09-.09c-.14-.13-.29-.24-.42-.37l-.11-.08-.44-.36-.09-.08-.45-.34a.33.33 0 0 0-.11-.09l-.44-.33-.11-.08-.44-.33-.36-.27-.46-.32-.11-.08-.45-.31-.12-.08-.46-.3-.12-.08-.46-.29-.12-.08-.47-.28a.57.57 0 0 0-.13-.08l-.46-.28-.13-.07-.46-.27-.14-.08-.46-.26L449 15l-.46-.25-.15-.08-.45-.24a.6.6 0 0 1-.16-.08l-.45-.23-.17-.08-.44-.23-.17-.08-.45-.22-.16-.08a4.54 4.54 0 0 0-.45-.21l-.17-.08-.44-.22-.18-.08-.44-.2-.2-.08c-.13-.07-.28-.13-.42-.19l-.19-.09-.42-.18-.2-.09-.42-.18-.22-.09-.39-.17-.25-.1-.37-.16-.27-.11-.34-.13a2.36 2.36 0 0 0-.28-.12l-.33-.14-.31-.12-.3-.12-.37-.15-.24-.09-.6-.24C425.26 5.08 399.42 0 398.16 0s-1.89.65-.64 1.28a5.82 5.82 0 0 1 1.42 1.2c.45.49 1 1.09 1.57 1.8.92 1.11 2 2.46 3.35 4 3.6 4.17 8.56 20.21 9.18 22.72a27.08 27.08 0 0 0 4 8.28 34.75 34.75 0 0 0 2.18 2.95v-.06a42.47 42.47 0 0 0 5.93 5.75c8.23 6.6 27.59 1.55 37.62 12.6a39.9 39.9 0 0 1-2.25 4.48c-4.76-6.43-9.9-7.86-14.89-9-3.51-.8-14.3-1.89-17.25-2.5a20.13 20.13 0 0 1-7.18-3.08c-22.47 15.46-28.12 43-28.13 56.66 0 14.49 8.18 38.76 21.7 57s16.05 51.06 16.37 54.53-6.64 21.41 32.74 21.42 36.22-12.58 36.53-25.8 8.55-39.4 17.05-54.2 18.91-29.59 18.91-52.59a72.24 72.24 0 0 0-18.86-48.76zM424 74c-4.34 3.71-15.76 12.77-15.76 33.09s4.77 20.61 2.68 21.21-6-13.75-6.57-16.43-3.09-19.18 3-29.58c2.74-4.7 11.56-14.76 16.1-14.64 2.26.05 4.42 3.04.55 6.35z"/>
			</symbol>
		</defs>
	</svg>